# xmcd
#
# Track frame offsets:
#	150
#	12652
#	25077
#	34057
#	48460
#	66567
#	77275
#	93265
#	105912
#	114750
#	126112
#	138900
#
# Disc length: 2346 seconds
# Revision: 2
# Processed by: cddbd v1.5.2PL0 Copyright (c) Steve Scherf et al.
# Submitted via: dBpowerAMP V12.0
#
DISCID=8e09280c
DTITLE=Lost and Found - A Ride Through the Country
DYEAR=1995
DGENRE=Country
TTITLE0=Lovin' on Backstreets
TTITLE1=Least of All
TTITLE2=Sweet Thang and Cisco
TTITLE3=Borrowed Angel
TTITLE4=Fraulein
TTITLE5=Her Name Is...
TTITLE6=I Met a Friend of Yours Today
TTITLE7=Swinging Doors
TTITLE8=It's Another World
TTITLE9=I Wouldn't Change You If I Could
TTITLE10=Hello Love
TTITLE11=Medley: The Wild Side of Life/Take These Chains from My Heart/They'll Never Take Her Love From Me/Don't Be Angry/Wedding Bells/The Wild Side of Life
EXTD=
EXTT0=
EXTT1=
EXTT2=
EXTT3=
EXTT4=
EXTT5=
EXTT6=
EXTT7=
EXTT8=
EXTT9=
EXTT10=
EXTT11=
PLAYORDER=
